<?xml version="1.0" encoding="utf-8"?>
<!-- Generator: Adobe Illustrator 22.1.0, SVG Export Plug-In . SVG Version: 6.00 Build 0)  -->
<svg version="1.1" id="Calque_1" xmlns="http://www.w3.org/2000/svg" xmlns:xlink="http://www.w3.org/1999/xlink" x="0px" y="0px"
	 viewBox="0 0 168.9 77.9" style="enable-background:new 0 0 168.9 77.9;" xml:space="preserve">
<style type="text/css">
	.st0{fill:#FFFFFF;}
	.st1{fill:#F49B24;}
	.st2{fill:url(#SVGID_1_);}
	.st3{fill:url(#SVGID_2_);}
	.st4{fill:url(#SVGID_3_);}
</style>
<g>
	<g>
		
			<rect x="74.9" y="21.5" transform="matrix(0.9976 -6.975623e-02 6.975623e-02 0.9976 -2.0675 7.5918)" width="65.6" height="23.9"/>
		<g>
			<path class="st0" d="M91.4,42.8L90.2,40l-5.3,0.4l-0.8,2.9l-4.1,0.3l5.6-16.6l3-0.2l7.2,15.8L91.4,42.8z M85.8,37.3l3.2-0.2
				l-1.9-4.6l0,0L85.8,37.3z"/>
			<path class="st0" d="M109.2,40.9c0.1,1.3-0.1,2.4-0.6,3.4c-1,1.9-3,2.9-5.2,3c-1.9,0.1-4-0.3-5.9-1.3l1.2-3.1
				c1.6,1.1,3.3,1.4,4.4,1.3c1.6-0.1,2.6-1.1,2.4-2.8l-0.1-1c-0.8,1.2-2.3,1.6-3.4,1.7c-3.2,0.2-5.8-2.4-6.1-6
				c-0.2-3.6,2-6.5,5.2-6.7c1.2-0.1,2.9,0.2,3.9,1.5l0.3-1.5l3.1-0.2L109.2,40.9z M105,33.4c-0.9-0.9-1.7-1.1-2.7-1
				c-1.9,0.1-2.6,1.8-2.5,3.4c0.1,1.7,1.2,3.1,2.9,3c0.9-0.1,1.9-0.4,2.6-1.6L105,33.4z"/>
			<path class="st0" d="M111.1,27.4l-0.2-3l3.7-0.3l0.2,3L111.1,27.4z M112.1,41.3l-0.9-12.4l3.7-0.3l0.9,12.4L112.1,41.3z"/>
			<path class="st0" d="M122.5,40.6l-3.7,0.3l-1.2-17.3l3.7-0.3L122.5,40.6z"/>
			<path class="st0" d="M131,40.3c-3.7,0.3-6.5-2.1-6.7-5.8c-0.3-3.8,2.3-6.8,5.9-7.1c3.5-0.2,6.2,2,6.5,5.3c0,0.5,0,1.1,0,1.7
				l-8.5,0.6c0.4,1.5,1.4,2.5,3,2.4c1.6-0.1,2.2-0.8,2.9-2l2.5,1.5C135.1,39,133.7,40.1,131,40.3z M132.7,32.1
				c-0.2-1.4-1.1-2-2.3-1.9c-1.5,0.1-2.1,1-2.4,2.3L132.7,32.1z"/>
		</g>
	</g>
	<g>
		<path d="M83.2,55.6c0.3-0.4,0.8-0.6,1.2-0.6c1.1,0,1.9,0.9,1.9,2c0,1.1-0.8,2-1.9,2c-0.4,0-0.9-0.2-1.2-0.5v0.4h-0.5V53h0.5V55.6z
			 M83.2,57.9c0.3,0.4,0.8,0.6,1.2,0.6c0.8,0,1.4-0.7,1.4-1.5c0-0.8-0.6-1.5-1.4-1.5c-0.5,0-1,0.3-1.2,0.7V57.9z"/>
		<path d="M87.4,55.1l1.1,3.2l1.1-3.2h0.6l-2.1,5.6l-0.5-0.2l0.5-1.4l-1.4-4H87.4z"/>
		<path d="M93.1,58.9v-8.8h2v7.1h3.5v1.7H93.1z"/>
		<path d="M103.8,58.9l-0.2-0.5c-0.4,0.5-1.1,0.7-1.8,0.7c-1.2,0-2.4-0.8-2.4-2.2c0-1.6,1.5-2.1,2.9-2.1c0.4,0,0.8,0,1.1,0.1v-0.1
			c0-0.8-0.3-1.3-1.2-1.3c-0.7,0-1.4,0.3-2,0.6l-0.5-1.4c0.9-0.5,1.9-0.7,2.9-0.7c1.8,0,2.8,1.1,2.8,2.8v4H103.8z M103.5,56
			c-0.3-0.1-0.5-0.1-0.8-0.1c-0.6,0-1.3,0.3-1.3,1c0,0.5,0.4,0.8,0.9,0.8s0.8-0.2,1.2-0.5V56z"/>
		<path d="M113.2,52.5c-0.5-0.4-1.1-0.7-1.8-0.7c-1.4,0-2.5,1.2-2.5,2.8c0,1.6,0.9,2.8,2.5,2.8c0.7,0,1.3-0.3,1.8-0.8l1.1,1.5
			c-0.9,0.7-1.9,1.1-3.1,1.1c-2.6,0-4.5-1.9-4.5-4.5c0-2.6,2.1-4.5,4.6-4.5c1.1,0,1.9,0.3,2.8,0.9L113.2,52.5z"/>
		<path d="M121.8,55.5c0,2-1.5,3.5-3.5,3.5s-3.5-1.5-3.5-3.5c0-2,1.5-3.5,3.5-3.5S121.8,53.6,121.8,55.5z M118.3,53.7
			c-0.9,0-1.5,0.8-1.5,1.8c0,1,0.6,1.8,1.5,1.8s1.5-0.8,1.5-1.8C119.8,54.5,119.2,53.7,118.3,53.7z"/>
		<path d="M129.5,58.9h-1.7l-0.2-0.8c-0.5,0.7-1.4,1-2,1c-1.7,0-3-1.6-3-3.5c0-1.9,1.3-3.5,3-3.5c0.6,0,1.4,0.2,1.9,0.8v-3.3h2V58.9
			z M126.1,53.7c-1,0-1.5,1-1.5,1.8c0,0.9,0.5,1.8,1.5,1.8c0.5,0,1-0.1,1.4-0.8v-2.2C127,53.9,126.6,53.7,126.1,53.7z"/>
		<path d="M131,51.4v-1.6h2v1.6H131z M131,58.9v-6.7h2v6.7H131z"/>
		<path d="M136.3,52.2l0.2,0.9c0.6-0.8,1.4-1,2-1c0.6,0,1.3,0.4,1.7,0.9c0.5,0.7,0.6,1.6,0.6,2.5v3.5h-2v-3.4c0-0.4,0-1-0.1-1.3
			c-0.1-0.3-0.5-0.5-0.8-0.5c-0.4,0-1,0.2-1.2,0.7v4.5h-2v-6.7H136.3z"/>
		<path d="M148.9,58.6c0,0.7-0.2,1.3-0.4,1.8c-0.6,1-1.7,1.4-2.9,1.4c-1,0-2.1-0.3-3.1-0.9l0.7-1.6c0.8,0.6,1.7,0.9,2.3,0.9
			c0.9,0,1.4-0.5,1.4-1.4v-0.5c-0.5,0.6-1.3,0.8-1.9,0.8c-1.7,0-3-1.5-3-3.5c0-1.9,1.3-3.4,3-3.4c0.6,0,1.6,0.2,2,1l0.2-0.8h1.7
			V58.6z M146.8,54.4c-0.4-0.5-0.9-0.6-1.4-0.6c-1,0-1.5,0.9-1.5,1.8c0,0.9,0.5,1.7,1.5,1.7c0.5,0,1-0.2,1.4-0.8V54.4z"/>
	</g>
	<g>
		<g>
			<path d="M168.9,55.7c-0.6,0-1.1-0.2-1.4-0.5c-0.5-0.5-0.5-1.3-0.5-2c0-0.2,0-0.5,0-0.7l0,0c0-2.2-1-2.5-1.7-2.5v-0.8
				c1.2,0,2.5,0.6,2.6,3.3c0,0.2,0,0.5,0,0.8c0,0.6,0,1.2,0.2,1.4c0.1,0.2,0.4,0.2,0.8,0.2V55.7z"/>
			<path d="M165.4,62.2v-0.8c0.7,0,1.7-0.3,1.7-2.5l0,0c0-0.2,0-0.4,0-0.7c0-0.7,0-1.5,0.5-2c0.3-0.3,0.8-0.5,1.4-0.5v0.8
				c-0.4,0-0.6,0.1-0.8,0.2c-0.3,0.3-0.3,0.9-0.2,1.4c0,0.3,0,0.5,0,0.8C167.9,61.6,166.5,62.2,165.4,62.2z"/>
		</g>
		<g>
			<path d="M152.6,55.7v-0.8c0.4,0,0.6-0.1,0.8-0.2c0.3-0.3,0.3-0.9,0.2-1.4c0-0.3,0-0.5,0-0.8c0-2.7,1.4-3.3,2.6-3.3V50
				c-0.7,0-1.7,0.3-1.7,2.5l0,0c0,0.2,0,0.4,0,0.7c0,0.7,0,1.5-0.5,2C153.7,55.5,153.2,55.7,152.6,55.7z"/>
			<path d="M156.2,62.2c-1.2,0-2.5-0.6-2.6-3.3c0-0.2,0-0.5,0-0.8c0-0.6,0-1.2-0.2-1.4c-0.1-0.2-0.4-0.2-0.8-0.2v-0.8
				c0.6,0,1.1,0.2,1.4,0.5c0.5,0.5,0.5,1.3,0.5,2c0,0.2,0,0.5,0,0.7l0,0c0,2.2,1,2.5,1.7,2.5V62.2z"/>
		</g>
		<g>
			<path class="st1" d="M165.4,55.6c-0.1-0.7-0.7-0.9-0.9-1c-0.3-0.7-1-2.5-3.7-2.5v0c0,0,0,0,0,0c0,0,0,0,0,0v0
				c-2.6,0-3.3,1.8-3.7,2.5c-0.2,0.1-0.8,0.3-0.9,1c0,0.1,0,0.9,0,1.1c0,0.9,0,1.7,0,2.6c1.5,0,3.1,0,4.6,0c1.5,0,3.1,0,4.6,0
				c0-0.9,0-1.7,0-2.6C165.4,56.4,165.4,55.7,165.4,55.6z M158.7,57.2c-0.4,0-0.8-0.3-0.8-0.8c0-0.4,0.3-0.8,0.8-0.8
				s0.8,0.3,0.8,0.8C159.5,56.9,159.1,57.2,158.7,57.2z M162.9,57.2c-0.4,0-0.8-0.3-0.8-0.8c0-0.4,0.3-0.8,0.8-0.8s0.8,0.3,0.8,0.8
				C163.6,56.8,163.3,57.2,162.9,57.2z"/>
			<path class="st1" d="M163.7,59.7L163.7,59.7l-5.8,0c-0.2,0-0.3,0.1-0.3,0.3c0,0.2,0.1,0.3,0.3,0.3h5.8l0,0c0.2,0,0.3-0.1,0.3-0.3
				C163.9,59.8,163.8,59.7,163.7,59.7z"/>
			<path class="st1" d="M162.6,60.7L162.6,60.7l-3.7,0c-0.2,0-0.3,0.1-0.3,0.3c0,0.2,0.1,0.3,0.3,0.3h3.7l0,0c0.2,0,0.3-0.1,0.3-0.3
				C162.9,60.8,162.8,60.7,162.6,60.7z"/>
			<path class="st1" d="M161.3,49.8c0-0.3-0.2-0.6-0.6-0.6c-0.3,0-0.6,0.2-0.6,0.6c0,0.2,0.1,0.4,0.3,0.5v1.1c0,0.2,0.1,0.3,0.3,0.3
				c0.2,0,0.3-0.1,0.3-0.3v-1.1C161.2,50.2,161.3,50,161.3,49.8z"/>
		</g>
	</g>
	<g>
		
			<linearGradient id="SVGID_1_" gradientUnits="userSpaceOnUse" x1="288.8805" y1="583.4229" x2="292.1195" y2="600.8981" gradientTransform="matrix(0.1822 -0.9833 0.9833 0.1822 -596.8604 234.5942)">
			<stop  offset="0" style="stop-color:#E7412B"/>
			<stop  offset="0.2744" style="stop-color:#ED7330"/>
			<stop  offset="0.6128" style="stop-color:#F49D33"/>
			<stop  offset="1" style="stop-color:#F8B247"/>
		</linearGradient>
		<path class="st2" d="M38.4,48c-4.9-0.1-8.9,3.9-9,8.8s3.9,8.9,8.8,9c4.9,0.1,8.9-3.9,9-8.8C47.3,52.1,43.4,48.1,38.4,48z"/>
		<linearGradient id="SVGID_2_" gradientUnits="userSpaceOnUse" x1="38.1226" y1="38.9286" x2="78.66" y2="38.9286">
			<stop  offset="0" style="stop-color:#E7412B"/>
			<stop  offset="0.2744" style="stop-color:#ED7330"/>
			<stop  offset="0.6128" style="stop-color:#F49D33"/>
			<stop  offset="1" style="stop-color:#F8B247"/>
		</linearGradient>
		<polygon class="st3" points="54.2,21.9 44.9,0 43.8,0 38.1,14.2 64.7,77.9 78.7,77.9 		"/>
		<linearGradient id="SVGID_3_" gradientUnits="userSpaceOnUse" x1="0" y1="38.9286" x2="44.3542" y2="38.9286">
			<stop  offset="0" style="stop-color:#E7412B"/>
			<stop  offset="0.2744" style="stop-color:#ED7330"/>
			<stop  offset="0.6128" style="stop-color:#F49D33"/>
			<stop  offset="1" style="stop-color:#F8B247"/>
		</linearGradient>
		<polygon class="st4" points="0,77.9 12.6,77.9 43.8,0 31.5,0 		"/>
	</g>
</g>
</svg>
